<?xml version="1.0" standalone="no"?>
<!DOCTYPE svg PUBLIC "-//W3C//DTD SVG 20010904//EN"
 "http://www.w3.org/TR/2001/REC-SVG-20010904/DTD/svg10.dtd">
<svg version="1.0" xmlns="http://www.w3.org/2000/svg"
 width="425.000000pt" height="425.000000pt" viewBox="0 0 425.000000 425.000000"
 preserveAspectRatio="xMidYMid meet">
<metadata>
Created by potrace 1.11, written by Peter Selinger 2001-2013
</metadata>
<g transform="translate(0.000000,425.000000) scale(0.100000,-0.100000)"
fill="#000000" stroke="none">
<path d="M3265 3119 c-91 -10 -225 -46 -310 -84 -88 -38 -212 -126 -285 -199
l-64 -66 13 -37 c30 -84 205 -486 260 -598 l60 -120 -6 70 c-12 156 41 317
138 420 90 95 182 136 310 136 145 0 232 -35 345 -143 64 -61 78 -70 93 -61
10 6 100 75 200 153 l182 141 -41 49 c-147 176 -329 284 -543 325 -100 19
-257 25 -352 14z"/>
<path d="M73 2448 c3 -627 4 -645 25 -723 26 -92 86 -220 137 -287 78 -106
233 -205 384 -247 170 -47 431 -52 616 -11 180 40 360 152 448 279 17 25 140
264 272 530 l241 484 118 -329 c144 -396 179 -480 238 -570 95 -142 262 -280
415 -344 152 -63 210 -74 413 -74 168 0 194 3 281 26 107 29 215 80 305 143
59 42 214 198 234 235 11 21 12 20 -240 197 l-145 103 -70 -69 c-90 -88 -119
-107 -207 -137 -165 -56 -391 -17 -497 88 -103 100 -246 384 -511 1018 l-137
325 -235 3 -235 2 -12 -27 c-7 -16 -37 -90 -67 -166 -167 -425 -378 -881 -481
-1041 -62 -98 -108 -144 -177 -177 -81 -39 -154 -52 -256 -47 -141 7 -226 60
-279 172 -47 99 -51 159 -51 745 l0 541 -266 0 -265 0 4 -642z"/>
<path d="M1300 2507 c0 -342 -4 -597 -10 -617 l-9 -35 24 30 c51 62 186 346
332 695 78 186 193 484 193 499 0 8 -84 11 -265 11 l-265 0 0 -583z"/>
<path d="M2075 1946 c-71 -31 -115 -102 -115 -185 0 -61 13 -97 48 -135 99
-105 274 -80 333 49 46 100 5 215 -93 266 -44 22 -128 25 -173 5z"/>
</g>
</svg>
