<svg width="2211" height="1046" xmlns="http://www.w3.org/2000/svg" preserveAspectRatio="xMidYMid meet">
 <metadata>Created by potrace 1.16, written by Peter Selinger 2001-2019</metadata>

 <g>
  <title>background</title>
  <rect fill="none" id="canvas_background" height="1048" width="2213" y="-1" x="-1"/>
 </g>
 <g>
  <title>Layer 1</title>
  <g id="svg_1" fill="#000000" transform="translate(0,1748) scale(0.10000000149011612,-0.10000000149011612) ">
   <path id="svg_2" d="m13302,17379c-419,-37 -814,-200 -1135,-469c-95,-80 -237,-230 -237,-251c0,-13 203,-507 298,-724c104,-240 155,-350 260,-570c92,-194 121,-249 128,-242c2,1 -3,39 -11,82c-19,105 -19,301 0,408c76,438 395,756 797,796c154,15 336,-13 472,-73c126,-56 285,-180 386,-300c30,-36 60,-64 66,-62c10,4 766,586 788,606c19,18 -156,225 -289,342c-274,242 -601,389 -987,443c-135,19 -405,26 -536,14z"/>
   <path id="svg_3" d="m6853,16103c3,-1304 2,-1261 57,-1498c63,-270 188,-515 352,-690c225,-241 518,-386 923,-456c146,-26 523,-36 701,-20c339,31 632,127 869,282c109,72 287,251 361,364c34,53 252,482 524,1032c256,518 468,939 471,935c4,-4 118,-313 254,-687c280,-771 313,-854 394,-991c324,-547 867,-884 1521,-945c131,-12 352,-7 500,11c531,67 941,302 1291,742c65,82 78,103 67,113c-40,36 -779,555 -790,554c-7,0 -42,-34 -77,-76c-169,-198 -382,-327 -611,-369c-158,-28 -395,-12 -550,38c-115,37 -239,107 -305,173c-198,194 -515,823 -993,1965c-93,223 -200,478 -237,568l-69,162l-475,0l-476,0l-99,-253c-297,-757 -656,-1569 -865,-1958c-164,-304 -276,-463 -376,-534c-84,-60 -196,-111 -314,-143c-85,-22 -116,-25 -266,-26c-159,0 -175,1 -252,27c-194,65 -332,206 -397,406c-52,160 -49,104 -53,1329l-4,1152l-540,0l-540,0l4,-1207z"/>
   <path id="svg_4" d="m9318,16138c-3,-1085 -5,-1177 -21,-1232c-10,-33 -16,-64 -14,-70c8,-23 154,219 257,429c246,499 586,1303 830,1964l29,81l-539,0l-539,0l-3,-1172z"/>
   <path id="svg_5" d="m10937,15049c-136,-32 -253,-145 -292,-283c-55,-190 38,-402 212,-483c253,-117 545,36 583,307c23,163 -57,334 -195,415c-83,48 -211,67 -308,44z"/>
   <path id="svg_6" d="m20850,12375c-382,-60 -620,-321 -620,-679c1,-194 48,-327 155,-431c124,-121 239,-170 695,-295c210,-58 332,-131 346,-207c25,-133 -55,-225 -221,-254c-198,-34 -456,42 -677,201c-48,34 -89,63 -92,63c-7,2 -296,-344 -296,-354c0,-24 182,-150 307,-213c211,-105 403,-150 648,-150c88,0 189,6 225,12c318,62 528,238 597,502c21,82 24,283 4,360c-42,170 -145,289 -328,382c-114,58 -210,91 -499,171c-250,70 -330,117 -354,209c-25,91 22,174 123,219c78,35 238,33 360,-4c94,-29 213,-85 313,-148c33,-22 65,-39 70,-39c5,0 67,84 138,187l129,187l-35,31c-56,48 -204,132 -292,166c-225,87 -479,118 -696,84z"/>
   <path id="svg_7" d="m7576,11242c-264,-620 -481,-1135 -484,-1144c-4,-17 13,-18 254,-18l259,0l69,173c38,94 85,209 104,255l34,82l475,-2l475,-3l101,-250l102,-250l268,-3c154,-1 267,1 265,7c-1,4 -221,520 -487,1145l-484,1136l-236,0l-236,0l-479,-1128zm857,151l144,-353l-288,0c-159,0 -289,3 -289,8c0,9 283,702 286,699c1,-1 67,-161 147,-354z"/>
   <path id="svg_8" d="m14082,12253c-73,-171 -913,-2146 -919,-2161c-4,-10 48,-12 257,-10l262,3l101,252l102,253l475,0l475,0l104,-255l103,-255l264,0c205,0 264,3 263,13c0,6 -217,521 -482,1142l-482,1130l-236,3l-237,2l-50,-117zm426,-860c78,-190 140,-348 139,-350c-2,-2 -133,-2 -290,-1l-286,3l142,347c78,191 144,348 147,348c3,0 70,-156 148,-347z"/>
   <path id="svg_9" d="m130,11693c0,-396 4,-715 11,-782c52,-561 391,-860 974,-861c555,0 899,271 980,774c12,74 15,226 15,814l0,722l-249,0l-250,0l-3,-717c-4,-642 -6,-724 -21,-776c-68,-231 -223,-347 -462,-347c-236,0 -394,118 -461,345c-16,55 -18,126 -21,778l-4,717l-254,0l-255,0l0,-667z"/>
   <path id="svg_10" d="m2610,11220l0,-1140l255,0l255,0l0,365l0,365l190,0l190,0l242,-365l243,-364l298,-1c163,0 297,2 297,5c0,3 -123,186 -274,406l-274,401l91,45c75,38 108,62 179,133c136,135 194,273 205,485c23,454 -242,746 -722,794c-64,6 -328,11 -642,11l-533,0l0,-1140zm1171,652c116,-39 189,-121 207,-235c24,-156 -38,-275 -178,-341l-65,-31l-312,-3l-313,-3l0,321l0,322l298,-4c272,-4 303,-6 363,-26z"/>
   <path id="svg_11" d="m4950,11220l0,-1140l544,0c298,0 600,5 669,10c373,31 612,177 689,423c20,61 23,93 22,212c-1,117 -4,150 -22,199c-49,134 -137,226 -286,302l-95,49l42,27c179,118 263,308 237,535c-33,289 -257,475 -620,513c-52,5 -339,10 -637,10l-543,0l0,-1140zm1092,679c71,-15 118,-41 155,-83c94,-106 61,-264 -67,-328c-79,-40 -154,-48 -437,-48l-253,0l0,235l0,235l275,0c164,0 295,-4 327,-11zm83,-889c183,-27 278,-139 245,-289c-10,-45 -22,-65 -59,-102c-78,-79 -97,-82 -513,-87l-358,-3l0,245l0,246l308,0c169,0 339,-5 377,-10z"/>
   <path id="svg_12" d="m9830,11220l0,-1140l255,0l255,0l2,709l3,708l540,-708l540,-709l212,0l213,0l0,1140l0,1140l-250,0l-250,0l-2,-686l-3,-686l-520,683l-520,684l-238,3l-237,2l0,-1140z"/>
   <path id="svg_13" d="m15910,11221l0,-1141l255,0l255,0l0,365l0,365l189,0l188,0l244,-365l244,-364l299,-1l298,0l-17,28c-10,15 -135,197 -277,406c-142,208 -258,379 -256,380c124,55 191,99 269,176c71,70 94,100 127,170c61,126 76,199 75,365c0,110 -5,157 -21,218c-73,270 -263,438 -577,510c-84,19 -130,20 -692,24l-603,5l0,-1141zm1090,668c141,-22 241,-95 276,-201c21,-64 16,-197 -10,-248c-25,-49 -84,-108 -131,-132c-82,-43 -126,-48 -427,-48l-288,0l0,320l0,320l258,0c141,0 286,-5 322,-11z"/>
   <path id="svg_14" d="m18090,12125l0,-235l340,0l340,0l0,-905l0,-905l255,0l255,0l0,905l0,905l345,0l345,0l0,235l0,235l-940,0l-940,0l0,-235z"/>
   <path id="svg_15" d="m5354,9561c-268,-31 -493,-134 -678,-311c-242,-230 -356,-506 -356,-858c0,-268 57,-467 195,-677c52,-80 224,-251 305,-304c201,-130 413,-191 670,-191c277,0 503,66 697,202c78,55 223,185 223,201c0,7 -71,84 -159,171l-159,158l-88,-71c-105,-85 -241,-156 -339,-176c-91,-19 -245,-19 -320,0c-174,44 -334,174 -413,335c-59,120 -82,218 -82,355c0,474 385,791 826,680c90,-23 212,-87 312,-164l90,-70l162,187l163,187l-54,48c-168,152 -356,244 -577,282c-106,19 -322,27 -418,16z"/>
   <path id="svg_16" d="m6800,8395l0,-1135l865,0l865,0l0,225l0,225l-615,0l-615,0l0,230l0,230l535,0l535,0l0,230l0,230l-535,0l-535,0l0,225l0,225l610,0l610,0l0,225l0,225l-860,0l-860,0l0,-1135z"/>
   <path id="svg_17" d="m8970,8395l0,-1135l250,0l250,0l2,705l3,705l535,-702l536,-703l222,-3l222,-2l0,1135l0,1135l-255,0l-255,0l-2,-685l-3,-684l-520,684l-520,684l-232,1l-233,0l0,-1135z"/>
   <path id="svg_18" d="m11360,9295l0,-235l345,0l345,0l0,-900l0,-900l250,0l250,0l0,900l0,900l345,0l345,0l0,235l0,235l-940,0l-940,0l0,-235z"/>
   <path id="svg_19" d="m13610,8395l0,-1135l255,0l255,0l0,360l0,360l193,-2l192,-3l239,-357l240,-358l299,0c164,0 296,4 293,8c-3,5 -126,186 -275,403l-269,394l58,26c196,90 342,261 397,469c28,103 25,340 -5,445c-84,292 -316,471 -667,514c-56,7 -302,11 -647,11l-558,0l0,-1135zm1167,652c88,-29 144,-75 182,-149c30,-59 34,-75 34,-145c0,-139 -70,-242 -199,-294c-57,-23 -70,-24 -366,-27l-308,-3l0,321l0,322l303,-4c249,-4 311,-7 354,-21z"/>
   <path id="svg_20" d="m15950,8395l0,-1135l865,0l865,0l0,225l0,225l-615,0l-615,0l0,230l0,230l535,0l535,0l0,230l0,230l-535,0l-535,0l0,225l0,225l610,0l610,0l0,225l0,225l-860,0l-860,0l0,-1135z"/>
  </g>
 </g>
</svg>