<svg xmlns="http://www.w3.org/2000/svg" viewBox="0 0 183.77 91.86"><defs><style>.cls-1,.cls-3{fill:#1d1d1b;}.cls-2{fill:none;}.cls-2,.cls-3{stroke:#1d1d1b;stroke-miterlimit:10;stroke-width:0.25px;}</style></defs><g id="Layer_2" data-name="Layer 2"><path class="cls-1" d="M483.59,230.73l-9,9a22.89,22.89,0,0,0-40.91,4.94,34.52,34.52,0,0,0-6.31-14.74,35.35,35.35,0,0,1,56.22.8Z" transform="translate(-299.93 -216.14)"/><path class="cls-1" d="M366.59,231.76a36.08,36.08,0,0,1,58.79-.2l0,0c0,.07.17.25.35.54a51.25,51.25,0,0,1,6.59,20.71v0a23.18,23.18,0,0,0,23,23,22.83,22.83,0,0,0,17.52-8.21l8.91,8.91a35.38,35.38,0,0,1-55.7-3.12.71.71,0,0,0-.1-.14,37.18,37.18,0,0,1-3.35-5.94,2.88,2.88,0,0,0-.13-.31,42.37,42.37,0,0,1-2.78-14.79,21.42,21.42,0,0,0-.13-2.42c-.05-.58-.13-1.15-.23-1.71a24,24,0,0,0-47.38,0c-.12.68-.21,1.38-.27,2.08s-.1,1.35-.1,2c0,.53,0,1.06.06,1.58A28.06,28.06,0,0,1,366,272.6a36.09,36.09,0,0,1-65.58-15c-.14-.87-.23-1.75-.29-2.64V216.31a21.7,21.7,0,0,1,12,9.11c.33.52.64,1,.92,1.59v25.27c0,.13,0,.27,0,.4s0,.27,0,.4a23.45,23.45,0,0,0,46.9-.4,37.15,37.15,0,0,1,6.39-20.53Z" transform="translate(-299.93 -216.14)"/><path class="cls-1" d="M396.4,246.75a7.77,7.77,0,1,1-7.77,7.77A7.77,7.77,0,0,1,396.4,246.75Z" transform="translate(-299.93 -216.14)"/><path class="cls-2" d="M313,253.08a23.45,23.45,0,0,0,46.9-.4" transform="translate(-299.93 -216.14)"/><path class="cls-2" d="M366.59,231.76a36.08,36.08,0,0,1,58.79-.2l0,0c0,.07.17.25.35.54" transform="translate(-299.93 -216.14)"/><path class="cls-2" d="M313,280.07a36.1,36.1,0,0,0,53-7.47,28.06,28.06,0,0,0,5.66-18.71c0-.52-.06-1-.06-1.58,0-.69,0-1.36.1-2s.15-1.4.27-2.08a24,24,0,0,1,47.38,0c.1.56.18,1.13.23,1.71" transform="translate(-299.93 -216.14)"/><path class="cls-2" d="M300.15,249.72c-.07.87-.1,1.75-.1,2.63s0,1.76.1,2.63" transform="translate(-299.93 -216.14)"/><path class="cls-2" d="M313,227c-.28-.55-.59-1.07-.92-1.59a21.7,21.7,0,0,0-12-9.11V255c.06.89.15,1.77.29,2.64A36,36,0,0,0,313,280.07" transform="translate(-299.93 -216.14)"/><path class="cls-2" d="M313,253.08c0-.13,0-.27,0-.4s0-.27,0-.4V247" transform="translate(-299.93 -216.14)"/><line class="cls-2" x1="13.1" y1="30.87" x2="13.1" y2="10.87"/><line class="cls-2" x1="13.1" y1="36.94" x2="13.1" y2="36.14"/><path class="cls-2" d="M367.5,230.57s-.35.41-.91,1.19l-.27.39a37.15,37.15,0,0,0-6.39,20.53" transform="translate(-299.93 -216.14)"/><path class="cls-2" d="M432.34,252.89a.22.22,0,0,1,0,.08" transform="translate(-299.93 -216.14)"/><path class="cls-2" d="M425.75,232.13a51.25,51.25,0,0,1,6.59,20.71" transform="translate(-299.93 -216.14)"/><path class="cls-2" d="M426.09,273.49a.71.71,0,0,0-.1-.14,37.18,37.18,0,0,1-3.35-5.94,2.88,2.88,0,0,0-.13-.31" transform="translate(-299.93 -216.14)"/><path class="cls-2" d="M419.6,249.89a21.42,21.42,0,0,1,.13,2.42,42.37,42.37,0,0,0,2.78,14.79" transform="translate(-299.93 -216.14)"/><path class="cls-2" d="M426.09,273.49a35.38,35.38,0,0,0,55.7,3.12" transform="translate(-299.93 -216.14)"/><path class="cls-2" d="M427.37,229.93a35.35,35.35,0,0,1,56.22.8" transform="translate(-299.93 -216.14)"/><path class="cls-2" d="M432.34,252.84v0a23.18,23.18,0,0,0,23,23,22.83,22.83,0,0,0,17.52-8.21" transform="translate(-299.93 -216.14)"/><path class="cls-2" d="M433.68,244.67a22.89,22.89,0,0,1,40.91-4.94" transform="translate(-299.93 -216.14)"/><path class="cls-2" d="M433.68,244.68h0a34.52,34.52,0,0,0-6.31-14.74s0,0,0,0" transform="translate(-299.93 -216.14)"/><line class="cls-2" x1="183.67" y1="14.59" x2="174.67" y2="23.59"/><line class="cls-2" x1="181.86" y1="60.47" x2="172.95" y2="51.56"/><path class="cls-2" d="M388.63,254.52a7.77,7.77,0,1,1,7.77,7.76A7.77,7.77,0,0,1,388.63,254.52Z" transform="translate(-299.93 -216.14)"/><path class="cls-3" d="M395.9,214.06" transform="translate(-299.93 -216.14)"/><path class="cls-1" d="M303,304.9v-5h.38v4.87c0,2.18,1.06,2.83,2.21,2.83s2.25-.65,2.25-2.83v-4.87h.36v5c0,2.45-1.34,3.1-2.61,3.1S303,307.35,303,304.9Z" transform="translate(-299.93 -216.14)"/><path class="cls-1" d="M315.3,299.94h2.18c1.56,0,2.54.58,2.54,2s-1,2.13-2.54,2.13h-1.8v3.74h-.38Zm2,3.84c1.47,0,2.28-.58,2.28-1.8s-.81-1.71-2.28-1.71h-1.65v3.51Zm.05.21.43,0,2.33,3.88h-.45Z" transform="translate(-299.93 -216.14)"/><path class="cls-1" d="M326.47,299.94h2.06c1.58,0,2.57.62,2.57,1.92a1.68,1.68,0,0,1-1.25,1.73v0a1.86,1.86,0,0,1,1.75,1.92c0,1.51-1.13,2.3-2.93,2.3h-2.2Zm1.82,3.53c1.73,0,2.42-.6,2.42-1.59,0-1.17-.81-1.61-2.35-1.61h-1.51v3.2Zm.24,4c1.66,0,2.69-.6,2.69-1.94s-1-1.78-2.69-1.78h-1.68v3.72Z" transform="translate(-299.93 -216.14)"/><path class="cls-1" d="M339.87,299.94h.34l2.83,7.91h-.41L341,303.11c-.33-1-.62-1.78-.91-2.76H340c-.28,1-.57,1.8-.91,2.76l-1.68,4.74H337Zm-1.61,4.75h3.52V305h-3.52Z" transform="translate(-299.93 -216.14)"/><path class="cls-1" d="M349.12,299.94h.41l3.5,5.8.91,1.56H354c0-.76-.05-1.48-.05-2.23v-5.13h.36v7.91h-.4l-3.51-5.8-.91-1.56h-.05c0,.74.05,1.42.05,2.16v5.2h-.36Z" transform="translate(-299.93 -216.14)"/><path class="cls-1" d="M370.39,299.94h.33l2.83,7.91h-.41l-1.65-4.74c-.34-1-.62-1.78-.91-2.76h-.05c-.29,1-.58,1.8-.91,2.76l-1.68,4.74h-.38Zm-1.61,4.75h3.51V305h-3.51Z" transform="translate(-299.93 -216.14)"/><path class="cls-1" d="M379.64,299.94h2.18c1.56,0,2.54.58,2.54,2s-1,2.13-2.54,2.13H380v3.74h-.38Zm2,3.84c1.46,0,2.28-.58,2.28-1.8s-.82-1.71-2.28-1.71H380v3.51Zm.05.21.43,0,2.32,3.88H384Z" transform="translate(-299.93 -216.14)"/><path class="cls-1" d="M392.42,300.27h-2.57v-.33h5.52v.33H392.8v7.58h-.38Z" transform="translate(-299.93 -216.14)"/><path class="cls-1" d="M400.47,306.8l.27-.26a3.09,3.09,0,0,0,2.37,1.1c1.27,0,2.09-.7,2.09-1.7s-.67-1.4-1.47-1.75l-1.22-.56c-.67-.3-1.61-.76-1.61-1.94a2,2,0,0,1,2.23-1.89,2.93,2.93,0,0,1,2.16.93l-.24.26a2.52,2.52,0,0,0-1.92-.83c-1.1,0-1.84.59-1.84,1.51s.82,1.35,1.39,1.6l1.22.56c.88.39,1.68.86,1.68,2.08a2.2,2.2,0,0,1-2.47,2.09A3.35,3.35,0,0,1,400.47,306.8Z" transform="translate(-299.93 -216.14)"/><path class="cls-1" d="M418.69,303.87c0-2.49,1.32-4.07,3.33-4.07a2.66,2.66,0,0,1,2,.93l-.24.26a2.32,2.32,0,0,0-1.78-.83c-1.82,0-2.93,1.43-2.93,3.71s1.11,3.77,2.88,3.77a2.63,2.63,0,0,0,2.07-1l.24.24A2.89,2.89,0,0,1,422,308C420,308,418.69,306.37,418.69,303.87Z" transform="translate(-299.93 -216.14)"/><path class="cls-1" d="M430.72,299.94H435v.33h-3.86v3.2h3.23v.33h-3.23v3.72h4v.33h-4.37Z" transform="translate(-299.93 -216.14)"/><path class="cls-1" d="M441.61,299.94h.4l3.51,5.8.91,1.56h.05c0-.76-.05-1.48-.05-2.23v-5.13h.36v7.91h-.41l-3.5-5.8-.91-1.56h-.05c0,.74.05,1.42.05,2.16v5.2h-.36Z" transform="translate(-299.93 -216.14)"/><path class="cls-1" d="M455.68,300.27h-2.56v-.33h5.51v.33h-2.56v7.58h-.39Z" transform="translate(-299.93 -216.14)"/><path class="cls-1" d="M465,299.94h2.18c1.56,0,2.54.58,2.54,2s-1,2.13-2.54,2.13h-1.8v3.74H465Zm2,3.84c1.46,0,2.28-.58,2.28-1.8s-.82-1.71-2.28-1.71h-1.66v3.51Zm0,.21.44,0,2.32,3.88h-.45Z" transform="translate(-299.93 -216.14)"/><path class="cls-1" d="M476.13,299.94h4.25v.33h-3.87v3.2h3.24v.33h-3.24v3.72h4v.33h-4.37Z" transform="translate(-299.93 -216.14)"/></g></svg>